<svg version="1.0" xmlns="http://www.w3.org/2000/svg"
 width="1024.000000pt" height="1024.000000pt" viewBox="0 0 1024.000000 1024.000000"
 preserveAspectRatio="xMidYMid meet">

<g transform="translate(0.000000,1024.000000) scale(0.100000,-0.100000)"
fill="#000000" stroke="none">
<path d="M6400 8344 c-261 -23 -533 -122 -735 -267 -295 -212 -520 -529 -624
-877 -60 -201 -66 -247 -65 -495 0 -188 3 -235 22 -323 53 -244 175 -493 342
-697 86 -105 276 -284 450 -425 682 -553 931 -808 1075 -1104 106 -218 138
-349 138 -566 0 -134 -4 -168 -26 -251 -76 -289 -268 -489 -547 -573 -212 -63
-473 -63 -1255 0 -907 73 -1512 96 -1890 74 -124 -8 -225 -16 -225 -18 0 -2
46 -56 102 -120 107 -120 269 -276 376 -361 165 -132 466 -323 621 -394 227
-103 511 -189 773 -234 148 -25 612 -25 783 0 392 59 746 180 1017 348 359
222 656 541 814 874 54 114 116 298 146 435 20 93 23 133 23 345 0 229 -1 245
-28 350 -44 178 -84 292 -147 421 -162 333 -382 577 -985 1094 -703 602 -856
813 -858 1180 0 183 34 308 123 443 93 144 208 233 365 283 162 53 330 40 490
-36 117 -56 266 -217 337 -364 22 -47 27 -51 138 -103 63 -30 203 -94 310
-143 107 -48 287 -130 400 -183 301 -140 572 -258 578 -252 3 2 -57 64 -133
137 -229 220 -426 487 -519 707 -20 46 -52 136 -71 200 -69 227 -116 324 -222
458 -164 208 -452 372 -731 417 -99 16 -287 26 -362 20z m876 -593 c153 -70
103 -295 -66 -295 -166 0 -218 216 -72 294 47 24 86 25 138 1z"/>
<path d="M1920 7193 c-30 -289 -24 -943 11 -1233 32 -265 109 -701 137 -771
27 -68 742 -421 1370 -676 831 -337 1940 -656 2767 -793 165 -28 355 -49 360
-40 7 12 -34 148 -72 239 -77 187 -228 406 -384 556 -233 224 -430 337 -949
544 -871 346 -1475 662 -2001 1046 -414 302 -819 708 -1131 1133 -50 67 -91
122 -92 122 -1 0 -8 -57 -16 -127z"/>
<path d="M2213 4554 c3 -11 28 -98 56 -194 107 -378 240 -692 392 -931 l49
-76 447 -6 c528 -7 1032 -36 1558 -87 983 -96 1334 -117 1505 -89 83 13 186
49 247 85 l48 29 -90 7 c-992 82 -2353 453 -3570 971 -104 45 -289 131 -410
191 -121 61 -224 112 -229 114 -4 3 -6 -4 -3 -14z"/>
</g>
</svg>
